<mxfile host="app.diagrams.net" modified="2023-06-07T06:31:31.238Z" agent="Mozilla/5.0 (Windows NT 10.0; Win64; x64) AppleWebKit/537.36 (KHTML, like Gecko) Chrome/114.0.0.0 Safari/537.36" version="21.3.5" etag="R-eWtJZBNa6lzOH3TDfZ" type="github">
  <diagram name="Page-1" id="4AgdEguFSzUEG5FJViuU">
    <mxGraphModel>
      <root>
        <mxCell id="0" />
        <mxCell id="1" parent="0" />
      </root>
    </mxGraphModel>
  </diagram>
</mxfile>
